<svg width="431" height="98" viewBox="0 0 431 98" fill="none" xmlns="http://www.w3.org/2000/svg">
<path d="M112.51 61C111.99 61 111.58 60.67 111.28 60.01L103.87 42.46C103.72 42.11 103.68 41.8 103.75 41.53C103.82 41.25 104.05 41.02 104.44 40.84C105.26 40.43 105.84 40.64 106.18 41.47L113.185 58.06H112.315L119.14 41.47C119.47 40.65 120.05 40.44 120.88 40.84C121.23 41.02 121.445 41.25 121.525 41.53C121.615 41.8 121.59 42.11 121.45 42.46L113.98 60.01C113.67 60.67 113.22 61 112.63 61H112.51ZM140.088 54.43V55.15C140.088 56.44 140.323 57.32 140.793 57.79C141.263 58.25 142.148 58.48 143.448 58.48H145.908C146.928 58.48 147.683 58.385 148.173 58.195C148.663 58.005 148.988 57.67 149.148 57.19C149.258 56.81 149.408 56.52 149.598 56.32C149.798 56.12 150.098 56.02 150.498 56.02C150.918 56.02 151.238 56.13 151.458 56.35C151.678 56.57 151.748 56.89 151.668 57.31C151.448 58.55 150.858 59.475 149.898 60.085C148.938 60.695 147.608 61 145.908 61H143.448C141.458 61 139.978 60.52 139.008 59.56C138.048 58.6 137.568 57.13 137.568 55.15V51.67C137.568 49.64 138.048 48.15 139.008 47.2C139.978 46.24 141.458 45.77 143.448 45.79H145.908C147.908 45.79 149.388 46.27 150.348 47.23C151.308 48.18 151.788 49.66 151.788 51.67V53.17C151.788 54.01 151.368 54.43 150.528 54.43H140.088ZM143.448 48.31C142.148 48.29 141.263 48.515 140.793 48.985C140.323 49.455 140.088 50.35 140.088 51.67V51.91H149.268V51.67C149.268 50.36 149.033 49.475 148.563 49.015C148.103 48.545 147.218 48.31 145.908 48.31H143.448ZM173.562 61C172.722 61 172.302 60.58 172.302 59.74V47.05C172.302 46.21 172.722 45.79 173.562 45.79C174.402 45.79 174.822 46.21 174.822 47.05V48.22C175.412 47.42 176.162 46.815 177.072 46.405C177.992 45.995 179.042 45.79 180.222 45.79C181.062 45.79 181.482 46.21 181.482 47.05C181.482 47.89 181.062 48.31 180.222 48.31C178.492 48.31 177.172 48.63 176.262 49.27C175.352 49.91 174.872 50.755 174.822 51.805V59.74C174.822 60.58 174.402 61 173.562 61ZM206.524 61C204.544 61 203.084 60.53 202.144 59.59C201.204 58.65 200.734 57.2 200.734 55.24V48.31H199.264C198.424 48.31 198.004 47.89 198.004 47.05C198.004 46.21 198.424 45.79 199.264 45.79H200.734V43.6C200.734 42.76 201.154 42.34 201.994 42.34C202.834 42.34 203.254 42.76 203.254 43.6V45.79H206.704C207.544 45.79 207.964 46.21 207.964 47.05C207.964 47.89 207.544 48.31 206.704 48.31H203.254V55.24C203.254 56.51 203.484 57.37 203.944 57.82C204.404 58.26 205.264 58.48 206.524 58.48C206.914 58.48 207.219 58.58 207.439 58.78C207.669 58.98 207.784 59.3 207.784 59.74C207.784 60.58 207.364 61 206.524 61ZM228.272 54.43V55.15C228.272 56.44 228.507 57.32 228.977 57.79C229.447 58.25 230.332 58.48 231.632 58.48H234.092C235.112 58.48 235.867 58.385 236.357 58.195C236.847 58.005 237.172 57.67 237.332 57.19C237.442 56.81 237.592 56.52 237.782 56.32C237.982 56.12 238.282 56.02 238.682 56.02C239.102 56.02 239.422 56.13 239.642 56.35C239.862 56.57 239.932 56.89 239.852 57.31C239.632 58.55 239.042 59.475 238.082 60.085C237.122 60.695 235.792 61 234.092 61H231.632C229.642 61 228.162 60.52 227.192 59.56C226.232 58.6 225.752 57.13 225.752 55.15V51.67C225.752 49.64 226.232 48.15 227.192 47.2C228.162 46.24 229.642 45.77 231.632 45.79H234.092C236.092 45.79 237.572 46.27 238.532 47.23C239.492 48.18 239.972 49.66 239.972 51.67V53.17C239.972 54.01 239.552 54.43 238.712 54.43H228.272ZM231.632 48.31C230.332 48.29 229.447 48.515 228.977 48.985C228.507 49.455 228.272 50.35 228.272 51.67V51.91H237.452V51.67C237.452 50.36 237.217 49.475 236.747 49.015C236.287 48.545 235.402 48.31 234.092 48.31H231.632ZM258.647 60.7C257.987 60.19 257.897 59.6 258.377 58.93L262.817 52.675L259.127 47.86C258.597 47.2 258.677 46.62 259.367 46.12C260.017 45.59 260.597 45.66 261.107 46.33L264.587 50.86L268.007 46.33C268.507 45.64 269.097 45.56 269.777 46.09C270.437 46.59 270.517 47.18 270.017 47.86L266.162 52.93L270.737 58.9C271.227 59.57 271.157 60.16 270.527 60.67C269.847 61.2 269.257 61.12 268.757 60.43L264.422 54.775L260.417 60.4C259.917 61.09 259.327 61.19 258.647 60.7ZM316.267 61C315.427 61 315.007 60.58 315.007 59.74V41.92C315.007 41.08 315.427 40.66 316.267 40.66C317.107 40.66 317.527 41.08 317.527 41.92V58.48H325.837C326.677 58.48 327.097 58.9 327.097 59.74C327.097 60.58 326.677 61 325.837 61H316.267ZM350.331 61C348.651 61 347.401 60.59 346.581 59.77C345.761 58.95 345.351 57.7 345.351 56.02C345.351 54.34 345.756 53.09 346.566 52.27C347.386 51.45 348.641 51.04 350.331 51.04H356.676C356.616 49.99 356.341 49.275 355.851 48.895C355.361 48.505 354.521 48.31 353.331 48.31H351.591C350.591 48.31 349.846 48.38 349.356 48.52C348.866 48.65 348.521 48.89 348.321 49.24C348.141 49.66 347.956 49.95 347.766 50.11C347.576 50.27 347.291 50.35 346.911 50.35C346.491 50.35 346.161 50.235 345.921 50.005C345.681 49.765 345.611 49.45 345.711 49.06C346.011 47.93 346.636 47.105 347.586 46.585C348.546 46.055 349.881 45.79 351.591 45.79H353.331C355.331 45.79 356.811 46.27 357.771 47.23C358.731 48.19 359.211 49.67 359.211 51.67V59.74C359.211 60.58 358.791 61 357.951 61C357.111 61 356.691 60.58 356.691 59.74V59.065C355.621 60.355 354.061 61 352.011 61H350.331ZM350.331 58.48H352.011C352.751 58.48 353.446 58.415 354.096 58.285C354.746 58.145 355.301 57.895 355.761 57.535C356.231 57.175 356.541 56.66 356.691 55.99V53.56H350.331C349.341 53.56 348.681 53.725 348.351 54.055C348.031 54.385 347.871 55.04 347.871 56.02C347.871 57.01 348.031 57.67 348.351 58C348.681 58.32 349.341 58.48 350.331 58.48ZM381.423 61C380.583 61 380.163 60.58 380.163 59.74V41.14C380.163 40.3 380.583 39.88 381.423 39.88C382.263 39.88 382.683 40.3 382.683 41.14V47.395C383.203 46.865 383.853 46.465 384.633 46.195C385.413 45.925 386.323 45.79 387.363 45.79H388.503C390.503 45.79 391.983 46.27 392.943 47.23C393.903 48.19 394.383 49.67 394.383 51.67V55.12C394.383 57.11 393.903 58.59 392.943 59.56C391.983 60.52 390.503 61 388.503 61H387.363C386.323 61 385.413 60.865 384.633 60.595C383.853 60.325 383.203 59.93 382.683 59.41V59.74C382.683 60.58 382.263 61 381.423 61ZM387.363 58.48H388.503C389.813 58.48 390.698 58.245 391.158 57.775C391.628 57.295 391.863 56.41 391.863 55.12V51.67C391.863 50.36 391.623 49.475 391.143 49.015C390.673 48.545 389.793 48.31 388.503 48.31H387.363C386.043 48.31 384.933 48.48 384.033 48.82C383.133 49.15 382.683 49.67 382.683 50.38V56.41C382.683 57.11 383.133 57.63 384.033 57.97C384.933 58.31 386.043 58.48 387.363 58.48ZM418.479 61C417.209 61 416.204 60.74 415.464 60.22C414.724 59.69 414.249 58.9 414.039 57.85C413.969 57.43 414.049 57.1 414.279 56.86C414.519 56.62 414.849 56.5 415.269 56.5C415.679 56.5 415.974 56.605 416.154 56.815C416.344 57.015 416.499 57.32 416.619 57.73C416.739 58.03 416.939 58.23 417.219 58.33C417.509 58.43 417.929 58.48 418.479 58.48H423.399C424.179 58.48 424.704 58.355 424.974 58.105C425.244 57.845 425.379 57.31 425.379 56.5C425.379 55.7 425.244 55.17 424.974 54.91C424.704 54.65 424.179 54.52 423.399 54.52H418.569C417.129 54.52 416.044 54.155 415.314 53.425C414.584 52.695 414.219 51.61 414.219 50.17C414.219 48.7 414.574 47.605 415.284 46.885C416.004 46.155 417.099 45.79 418.569 45.79H423.249C425.599 45.79 426.989 46.78 427.419 48.76C427.499 49.18 427.419 49.505 427.179 49.735C426.939 49.965 426.609 50.08 426.189 50.08C425.799 50.08 425.509 49.98 425.319 49.78C425.129 49.57 424.979 49.28 424.869 48.91C424.749 48.67 424.564 48.51 424.314 48.43C424.074 48.35 423.719 48.31 423.249 48.31H418.569C417.809 48.31 417.314 48.425 417.084 48.655C416.854 48.885 416.739 49.39 416.739 50.17C416.739 50.89 416.859 51.375 417.099 51.625C417.349 51.875 417.839 52 418.569 52H423.399C424.899 52 426.024 52.375 426.774 53.125C427.524 53.875 427.899 55 427.899 56.5C427.899 58.01 427.524 59.14 426.774 59.89C426.024 60.63 424.899 61 423.399 61H418.479Z" fill="black"/>
<path d="M11.1887 37.531C10.002 35.5312 11.4433 33 13.7687 33L33.7423 33C34.8278 33 35.8286 33.5864 36.3593 34.5333L58.4967 74.0333C59.6174 76.0331 58.1721 78.5 55.8797 78.5L37.2082 78.5C36.1492 78.5 35.1687 77.9417 34.6283 77.031L11.1887 37.531Z" fill="black"/>
<path d="M85.1934 35.4788C85.6943 34.5604 85.6807 33.4473 85.1573 32.5414L75.6606 16.1049C74.4919 14.0821 71.5617 14.1124 70.435 16.1589L50.9483 51.5531C49.8475 53.5525 51.2939 56 53.5763 56H72.2191C73.3169 56 74.3271 55.4003 74.8528 54.4366L85.1934 35.4788Z" fill="black"/>
</svg>
